inDegrees=no
num_controls=7
num_derivatives=13
num_iterations=152
num_multipliers=7
num_parameters=0
num_slacks=7
num_states=26
objective=5.779566
objective_accelerations=0.689384
objective_balance=0.011449
objective_effort=0.491716
objective_height=4.516960
objective_ligament=0.070057
solver_duration=1269.003635
status=Solve_Succeeded
success=true
DataType=double
version=3
OpenSimVersion=4.4-2022-07-23-0e9fedc
endheader
time	/jointset/ground_pelvis/pelvis_tilt/value	/jointset/ground_pelvis/pelvis_tx/value	/jointset/ground_pelvis/pelvis_ty/value	/jointset/hip_r/hip_flexion_r/value	/jointset/hip_r/hip_adduction_r/value	/jointset/hip_r/hip_rotation_r/value	/jointset/back/lumbar_extension/value	/jointset/patellofemoral_r/patellar_flexion_r/value	/jointset/knee_r/knee_flexion_r/value	/jointset/knee_r/knee_adduction_r/value	/jointset/knee_r/knee_rotation_r/value	/jointset/ankle_r/ankle_angle_r/value	/jointset/subtalar_r/subtalar_angle_r/value	/jointset/ground_pelvis/pelvis_tilt/speed	/jointset/ground_pelvis/pelvis_tx/speed	/jointset/ground_pelvis/pelvis_ty/speed	/jointset/hip_r/hip_flexion_r/speed	/jointset/hip_r/hip_adduction_r/speed	/jointset/hip_r/hip_rotation_r/speed	/jointset/back/lumbar_extension/speed	/jointset/patellofemoral_r/patellar_flexion_r/speed	/jointset/knee_r/knee_flexion_r/speed	/jointset/knee_r/knee_adduction_r/speed	/jointset/knee_r/knee_rotation_r/speed	/jointset/ankle_r/ankle_angle_r/speed	/jointset/subtalar_r/subtalar_angle_r/speed	/forceset/tau_hip_flexion_r	/forceset/tau_hip_adduction_r	/forceset/tau_hip_rotation_r	/forceset/tau_knee_flexion_r	/forceset/tau_ankle_angle_r	/forceset/tau_subtalar_angle_r	/forceset/tau_lumbar_extension	lambda_cid13_p0	lambda_cid14_p0	lambda_cid14_p1	lambda_cid14_p2	lambda_cid14_p3	lambda_cid14_p4	lambda_cid14_p5	/jointset/ground_pelvis/pelvis_tilt/accel	/jointset/ground_pelvis/pelvis_tx/accel	/jointset/ground_pelvis/pelvis_ty/accel	/jointset/hip_r/hip_flexion_r/accel	/jointset/hip_r/hip_adduction_r/accel	/jointset/hip_r/hip_rotation_r/accel	/jointset/back/lumbar_extension/accel	/jointset/patellofemoral_r/patellar_flexion_r/accel	/jointset/knee_r/knee_flexion_r/accel	/jointset/knee_r/knee_adduction_r/accel	/jointset/knee_r/knee_rotation_r/accel	/jointset/ankle_r/ankle_angle_r/accel	/jointset/subtalar_r/subtalar_angle_r/accel	gamma_cid13_p0	gamma_cid14_p0	gamma_cid14_p1	gamma_cid14_p2	gamma_cid14_p3	gamma_cid14_p4	gamma_cid14_p5
0.5	-0.1516542749758102	0.01339696201921015	0.7917512698266574	0.9553104710715135	-0.2187158533763623	-0.1306550154875936	-0.6549215392665176	1.004425991085143	1.004425991085125	-0.07848902427793868	0.1745283363692835	0.2983290558600001	0.1467246328556715	-0.4062373637507457	-0.2141071957000987	-0.5633956260966019	2.034030197459862	-0.04795647994274212	0.2171976164015689	-0.7327991977694245	2.061946468567064	2.061946468567188	-0.4057461881248651	-0.0002639726011230611	0.5318228307312748	0.1416101653580963	-0.205879906378066	0.0008107936084447902	0.01767129550324804	-0.3044433881464647	0.01869547556656128	0.005613969903343055	0.2466387803165141	-6.227641138326431	-36.11559664589727	-3.274781549320532	0.2465133298695437	-6.592875088457892	-640.4287681452245	68.07577927756945	0.4432737550958578	0.6925388727600138	-0.4489446889267252	-1.412021946871863	-0.1862049422168836	-0.3358851630630587	1.958557143284183	-1.445766376809138	-1.445766376809133	0.656581216335089	-0.07288395671141952	-0.6632148138456506	-0.42564860929057	-6.597197177377208e-08	1.448331877804436e-07	2.142834000146978e-06	6.760054223190169e-07	-2.878367743540059e-07	-1.732666519683175e-07	1.49071192645298e-06
0.51	-0.1556935794187432	0.01129070031697151	0.7860962214556894	0.975576959968686	-0.2192050600487501	-0.1285021637346245	-0.6621510115860082	1.024969790277222	1.024969790277167	-0.0825141363557296	0.1745245007249353	0.3036130185097654	0.1481183678241352	-0.4015562069386824	-0.2071276676305546	-0.5674827291810006	2.018987274307548	-0.04987301700354183	0.2133849496912239	-0.7130057116369	2.046526930776988	2.046526930777086	-0.3992272442916548	-0.0004908951359510937	0.5248856001771209	0.1371026321153558	-0.2128397147991184	0.001220881227413712	0.01794821570275706	-0.309951020646502	0.01780853267058763	0.00617345062375252	0.2531269099481898	-5.354447723256769	-36.74381279175061	-3.264640747993965	0.3852151706113395	-6.541144898634116	-646.1647201751684	68.79933240680113	0.4906566574778525	0.7032231175879142	-0.3689287610365812	-1.592450342682428	-0.192391064680931	-0.4022271973408916	2.003177522486276	-1.633000814455975	-1.633000814459634	0.6571849417466482	0.004440516784497726	-0.721650557840641	-0.4680186037596971	-5.557806367414553e-08	1.559243903284364e-07	2.091574009379684e-06	7.246506183729718e-07	-2.905139000590556e-07	-1.600597507937593e-07	1.50122180232462e-06
0.52	-0.159684048290935	0.009254746564135283	0.7804042349253086	0.9956846150656701	-0.2197130346870854	-0.1263870926031933	-0.6691798624093274	1.045350803424488	1.045350803424498	-0.08647253220023371	0.1745188032399341	0.3088250741776576	0.1494660848757724	-0.3964702495979064	-0.2000456058196177	-0.5707832579790526	2.002263437424398	-0.05171007313116544	0.2096414920880085	-0.6926748985343566	2.029389259612942	2.029389259613016	-0.3924029414611304	-0.0006363409246272927	0.5174414343573407	0.132406581992835	-0.2197995232201354	0.00163096884649214	0.018225135903241	-0.3154586531464385	0.01692158977463203	0.006732931344317541	0.2596150395798833	-4.550035338924451	-37.36757784083459	-3.244821351503202	0.5122101796167773	-6.523689530076317	-651.862178053085	69.54964236650622	0.524233860838961	0.7130456210382472	-0.2916298316574145	-1.748204693039157	-0.1703087555817623	-0.3220433416374726	2.066022537288181	-1.789393051603045	-1.789393051603048	0.7176530157979567	-0.05658860748050552	-0.7646018669714554	-0.463351985247077	-4.133528754550852e-08	1.67581198262777e-07	2.003465031872511e-06	7.857312653490332e-07	-2.892990158341928e-07	-1.45228573296897e-07	1.493815313001822e-06
0.53	-0.1636217432827809	0.00729004629272843	0.774683177203433	1.015616903730025	-0.2202388936663079	-0.1243089627349221	-0.6760028501636296	1.065552115422623	1.065552115422607	-0.09036132037735248	0.1745118218094152	0.3139602979591524	0.150766069219665	-0.3910053294836117	-0.192884232910267	-0.5732952635492498	1.983927655862619	-0.05344740412337333	0.2060080033465568	-0.6718535839646745	2.01060708473627	2.010607084736274	-0.3853022028121835	-0.0007530425599357051	0.509530498077951	0.1275632781122707	-0.2265591589947164	0.002224181202237068	0.01843287731165533	-0.3211058152092259	0.01611027843979911	0.007073724487120706	0.2658819085677702	-3.814513251378224	-37.98903548041204	-3.336526752146267	0.6763480733904863	-6.432850481341342	-657.5607050225187	70.07837738825837	0.5671588815991334	0.7191577255977158	-0.2110599805622904	-1.916234497198183	-0.1730898803704219	-0.3805444571906032	2.100546171443444	-1.962531225430998	-1.962531225441274	0.714409726556102	0.01204779392131155	-0.8153123432932824	-0.4984680488330291	-2.927634813876323e-08	1.774294522206872e-07	1.922363774245029e-06	8.297968026346161e-07	-2.883577659635546e-07	-1.313346294016932e-07	1.488214114992925e-06
